<svg width="196" height="28" viewBox="0 0 196 28" fill="none" xmlns="http://www.w3.org/2000/svg">
<path d="M11.2344 22.7109V14.2383C11.2344 13.6289 11.1348 13.1074 10.9355 12.6738C10.7363 12.2285 10.4258 11.8828 10.0039 11.6367C9.59375 11.3906 9.06055 11.2676 8.4043 11.2676C7.8418 11.2676 7.35547 11.3672 6.94531 11.5664C6.53516 11.7539 6.21875 12.0293 5.99609 12.3926C5.77344 12.7441 5.66211 13.1602 5.66211 13.6406H0.599609C0.599609 12.832 0.787109 12.0645 1.16211 11.3379C1.53711 10.6113 2.08203 9.97266 2.79688 9.42188C3.51172 8.85938 4.36133 8.41992 5.3457 8.10352C6.3418 7.78711 7.45508 7.62891 8.68555 7.62891C10.1621 7.62891 11.4746 7.875 12.623 8.36719C13.7715 8.85938 14.6738 9.59766 15.3301 10.582C15.998 11.5664 16.332 12.7969 16.332 14.2734V22.4121C16.332 23.4551 16.3965 24.3105 16.5254 24.9785C16.6543 25.6348 16.8418 26.209 17.0879 26.7012V27H11.9727C11.7266 26.4844 11.5391 25.8398 11.4102 25.0664C11.293 24.2812 11.2344 23.4961 11.2344 22.7109ZM11.9023 15.416L11.9375 18.2812H9.10742C8.43945 18.2812 7.85938 18.3574 7.36719 18.5098C6.875 18.6621 6.4707 18.8789 6.1543 19.1602C5.83789 19.4297 5.60352 19.7461 5.45117 20.1094C5.31055 20.4727 5.24023 20.8711 5.24023 21.3047C5.24023 21.7383 5.33984 22.1309 5.53906 22.4824C5.73828 22.8223 6.02539 23.0918 6.40039 23.291C6.77539 23.4785 7.21484 23.5723 7.71875 23.5723C8.48047 23.5723 9.14258 23.4199 9.70508 23.1152C10.2676 22.8105 10.7012 22.4355 11.0059 21.9902C11.3223 21.5449 11.4863 21.123 11.498 20.7246L12.834 22.8691C12.6465 23.3496 12.3887 23.8477 12.0605 24.3633C11.7441 24.8789 11.3398 25.3652 10.8477 25.8223C10.3555 26.2676 9.76367 26.6367 9.07227 26.9297C8.38086 27.2109 7.56055 27.3516 6.61133 27.3516C5.4043 27.3516 4.30859 27.1113 3.32422 26.6309C2.35156 26.1387 1.57812 25.4648 1.00391 24.6094C0.441406 23.7422 0.160156 22.7578 0.160156 21.6562C0.160156 20.6602 0.347656 19.7754 0.722656 19.002C1.09766 18.2285 1.64844 17.5781 2.375 17.0508C3.11328 16.5117 4.0332 16.1074 5.13477 15.8379C6.23633 15.5566 7.51367 15.416 8.9668 15.416H11.9023ZM25.2969 11.918V27H20.2168V7.98047H24.9805L25.2969 11.918ZM24.5938 16.8223H23.1875C23.1875 15.498 23.3457 14.2793 23.6621 13.166C23.9902 12.041 24.4648 11.0684 25.0859 10.248C25.7188 9.41602 26.498 8.77148 27.4238 8.31445C28.3496 7.85742 29.4219 7.62891 30.6406 7.62891C31.4844 7.62891 32.2578 7.75781 32.9609 8.01562C33.6641 8.26172 34.2676 8.6543 34.7715 9.19336C35.2871 9.7207 35.6855 10.4121 35.9668 11.2676C36.248 12.1113 36.3887 13.125 36.3887 14.3086V27H31.3262V14.8711C31.3262 14.0039 31.209 13.3359 30.9746 12.8672C30.7402 12.3984 30.4062 12.0703 29.9727 11.8828C29.5508 11.6953 29.041 11.6016 28.4434 11.6016C27.7871 11.6016 27.2129 11.7363 26.7207 12.0059C26.2402 12.2754 25.8418 12.6504 25.5254 13.1309C25.209 13.5996 24.9746 14.1504 24.8223 14.7832C24.6699 15.416 24.5938 16.0957 24.5938 16.8223ZM35.9141 16.2422L34.1035 16.4707C34.1035 15.2285 34.2559 14.0742 34.5605 13.0078C34.877 11.9414 35.3398 11.0039 35.9492 10.1953C36.5703 9.38672 37.3379 8.75977 38.252 8.31445C39.166 7.85742 40.2207 7.62891 41.416 7.62891C42.3301 7.62891 43.1621 7.76367 43.9121 8.0332C44.6621 8.29102 45.3008 8.70703 45.8281 9.28125C46.3672 9.84375 46.7773 10.582 47.0586 11.4961C47.3516 12.4102 47.498 13.5293 47.498 14.8535V27H42.418V14.8535C42.418 13.9746 42.3008 13.3066 42.0664 12.8496C41.8438 12.3809 41.5156 12.0586 41.082 11.8828C40.6602 11.6953 40.1562 11.6016 39.5703 11.6016C38.9609 11.6016 38.4277 11.7246 37.9707 11.9707C37.5137 12.2051 37.1328 12.5332 36.8281 12.9551C36.5234 13.377 36.2949 13.8691 36.1426 14.4316C35.9902 14.9824 35.9141 15.5859 35.9141 16.2422ZM51.418 0H56.4805V22.6406L55.9707 27H51.418V0ZM68.5215 17.2969V17.666C68.5215 19.084 68.3691 20.3848 68.0645 21.5684C67.7715 22.752 67.3145 23.7773 66.6934 24.6445C66.0723 25.5 65.2988 26.168 64.373 26.6484C63.459 27.1172 62.3809 27.3516 61.1387 27.3516C59.9785 27.3516 58.9707 27.1172 58.1152 26.6484C57.2715 26.1797 56.5625 25.5176 55.9883 24.6621C55.4141 23.8066 54.9512 22.8047 54.5996 21.6562C54.248 20.5078 53.9844 19.2539 53.8086 17.8945V17.0859C53.9844 15.7266 54.248 14.4727 54.5996 13.3242C54.9512 12.1758 55.4141 11.1738 55.9883 10.3184C56.5625 9.46289 57.2715 8.80078 58.1152 8.33203C58.959 7.86328 59.9551 7.62891 61.1035 7.62891C62.3574 7.62891 63.4473 7.86914 64.373 8.34961C65.3105 8.81836 66.084 9.48633 66.6934 10.3535C67.3145 11.209 67.7715 12.2285 68.0645 13.4121C68.3691 14.584 68.5215 15.8789 68.5215 17.2969ZM63.459 17.666V17.2969C63.459 16.5234 63.4004 15.7969 63.2832 15.1172C63.1777 14.4258 62.9902 13.8223 62.7207 13.3066C62.4512 12.7793 62.082 12.3633 61.6133 12.0586C61.1562 11.7539 60.5645 11.6016 59.8379 11.6016C59.1465 11.6016 58.5605 11.7188 58.0801 11.9531C57.5996 12.1875 57.2012 12.5156 56.8848 12.9375C56.5801 13.3594 56.3516 13.8633 56.1992 14.4492C56.0469 15.0234 55.9531 15.6562 55.918 16.3477V18.6504C55.9531 19.5762 56.1055 20.3965 56.375 21.1113C56.6562 21.8145 57.0781 22.3711 57.6406 22.7812C58.2148 23.1797 58.959 23.3789 59.873 23.3789C60.5879 23.3789 61.1797 23.2383 61.6484 22.957C62.1172 22.6758 62.4805 22.2773 62.7383 21.7617C63.0078 21.2461 63.1953 20.6426 63.3008 19.9512C63.4062 19.248 63.459 18.4863 63.459 17.666ZM80.4219 27.3516C78.9453 27.3516 77.6211 27.1172 76.4492 26.6484C75.2773 26.168 74.2812 25.5059 73.4609 24.6621C72.6523 23.8184 72.0312 22.8398 71.5977 21.7266C71.1641 20.6016 70.9473 19.4062 70.9473 18.1406V17.4375C70.9473 15.9961 71.1523 14.6777 71.5625 13.4824C71.9727 12.2871 72.5586 11.25 73.3203 10.3711C74.0938 9.49219 75.0312 8.81836 76.1328 8.34961C77.2344 7.86914 78.4766 7.62891 79.8594 7.62891C81.207 7.62891 82.4023 7.85156 83.4453 8.29688C84.4883 8.74219 85.3613 9.375 86.0645 10.1953C86.7793 11.0156 87.3184 12 87.6816 13.1484C88.0449 14.2852 88.2266 15.5508 88.2266 16.9453V19.0547H73.1094V15.6797H83.252V15.293C83.252 14.5898 83.123 13.9629 82.8652 13.4121C82.6191 12.8496 82.2441 12.4043 81.7402 12.0762C81.2363 11.748 80.5918 11.584 79.8066 11.584C79.1387 11.584 78.5645 11.7305 78.084 12.0234C77.6035 12.3164 77.2109 12.7266 76.9062 13.2539C76.6133 13.7812 76.3906 14.4023 76.2383 15.1172C76.0977 15.8203 76.0273 16.5938 76.0273 17.4375V18.1406C76.0273 18.9023 76.1328 19.6055 76.3438 20.25C76.5664 20.8945 76.877 21.4512 77.2754 21.9199C77.6855 22.3887 78.1777 22.752 78.752 23.0098C79.3379 23.2676 80 23.3965 80.7383 23.3965C81.6523 23.3965 82.502 23.2207 83.2871 22.8691C84.084 22.5059 84.7695 21.9609 85.3438 21.2344L87.8047 23.9062C87.4062 24.4805 86.8613 25.0312 86.1699 25.5586C85.4902 26.0859 84.6699 26.5195 83.709 26.8594C82.748 27.1875 81.6523 27.3516 80.4219 27.3516ZM96.1719 12.1289V27H91.1094V7.98047H95.873L96.1719 12.1289ZM101.902 7.85742L101.814 12.5508C101.568 12.5156 101.27 12.4863 100.918 12.4629C100.578 12.4277 100.268 12.4102 99.9863 12.4102C99.2715 12.4102 98.6504 12.5039 98.123 12.6914C97.6074 12.8672 97.1738 13.1309 96.8223 13.4824C96.4824 13.834 96.2246 14.2617 96.0488 14.7656C95.8848 15.2695 95.791 15.8438 95.7676 16.4883L94.748 16.1719C94.748 14.9414 94.8711 13.8105 95.1172 12.7793C95.3633 11.7363 95.7207 10.8281 96.1895 10.0547C96.6699 9.28125 97.2559 8.68359 97.9473 8.26172C98.6387 7.83984 99.4297 7.62891 100.32 7.62891C100.602 7.62891 100.889 7.65234 101.182 7.69922C101.475 7.73438 101.715 7.78711 101.902 7.85742Z" fill="#CFC2AE"/>
<path d="M113.047 27.3516C111.57 27.3516 110.246 27.1172 109.074 26.6484C107.902 26.168 106.906 25.5059 106.086 24.6621C105.277 23.8184 104.656 22.8398 104.223 21.7266C103.789 20.6016 103.572 19.4062 103.572 18.1406V17.4375C103.572 15.9961 103.777 14.6777 104.188 13.4824C104.598 12.2871 105.184 11.25 105.945 10.3711C106.719 9.49219 107.656 8.81836 108.758 8.34961C109.859 7.86914 111.102 7.62891 112.484 7.62891C113.832 7.62891 115.027 7.85156 116.07 8.29688C117.113 8.74219 117.986 9.375 118.689 10.1953C119.404 11.0156 119.943 12 120.307 13.1484C120.67 14.2852 120.852 15.5508 120.852 16.9453V19.0547H105.734V15.6797H115.877V15.293C115.877 14.5898 115.748 13.9629 115.49 13.4121C115.244 12.8496 114.869 12.4043 114.365 12.0762C113.861 11.748 113.217 11.584 112.432 11.584C111.764 11.584 111.189 11.7305 110.709 12.0234C110.229 12.3164 109.836 12.7266 109.531 13.2539C109.238 13.7812 109.016 14.4023 108.863 15.1172C108.723 15.8203 108.652 16.5938 108.652 17.4375V18.1406C108.652 18.9023 108.758 19.6055 108.969 20.25C109.191 20.8945 109.502 21.4512 109.9 21.9199C110.311 22.3887 110.803 22.752 111.377 23.0098C111.963 23.2676 112.625 23.3965 113.363 23.3965C114.277 23.3965 115.127 23.2207 115.912 22.8691C116.709 22.5059 117.395 21.9609 117.969 21.2344L120.43 23.9062C120.031 24.4805 119.486 25.0312 118.795 25.5586C118.115 26.0859 117.295 26.5195 116.334 26.8594C115.373 27.1875 114.277 27.3516 113.047 27.3516ZM134 22.7109V14.2383C134 13.6289 133.9 13.1074 133.701 12.6738C133.502 12.2285 133.191 11.8828 132.77 11.6367C132.359 11.3906 131.826 11.2676 131.17 11.2676C130.607 11.2676 130.121 11.3672 129.711 11.5664C129.301 11.7539 128.984 12.0293 128.762 12.3926C128.539 12.7441 128.428 13.1602 128.428 13.6406H123.365C123.365 12.832 123.553 12.0645 123.928 11.3379C124.303 10.6113 124.848 9.97266 125.562 9.42188C126.277 8.85938 127.127 8.41992 128.111 8.10352C129.107 7.78711 130.221 7.62891 131.451 7.62891C132.928 7.62891 134.24 7.875 135.389 8.36719C136.537 8.85938 137.439 9.59766 138.096 10.582C138.764 11.5664 139.098 12.7969 139.098 14.2734V22.4121C139.098 23.4551 139.162 24.3105 139.291 24.9785C139.42 25.6348 139.607 26.209 139.854 26.7012V27H134.738C134.492 26.4844 134.305 25.8398 134.176 25.0664C134.059 24.2812 134 23.4961 134 22.7109ZM134.668 15.416L134.703 18.2812H131.873C131.205 18.2812 130.625 18.3574 130.133 18.5098C129.641 18.6621 129.236 18.8789 128.92 19.1602C128.604 19.4297 128.369 19.7461 128.217 20.1094C128.076 20.4727 128.006 20.8711 128.006 21.3047C128.006 21.7383 128.105 22.1309 128.305 22.4824C128.504 22.8223 128.791 23.0918 129.166 23.291C129.541 23.4785 129.98 23.5723 130.484 23.5723C131.246 23.5723 131.908 23.4199 132.471 23.1152C133.033 22.8105 133.467 22.4355 133.771 21.9902C134.088 21.5449 134.252 21.123 134.264 20.7246L135.6 22.8691C135.412 23.3496 135.154 23.8477 134.826 24.3633C134.51 24.8789 134.105 25.3652 133.613 25.8223C133.121 26.2676 132.529 26.6367 131.838 26.9297C131.146 27.2109 130.326 27.3516 129.377 27.3516C128.17 27.3516 127.074 27.1113 126.09 26.6309C125.117 26.1387 124.344 25.4648 123.77 24.6094C123.207 23.7422 122.926 22.7578 122.926 21.6562C122.926 20.6602 123.113 19.7754 123.488 19.002C123.863 18.2285 124.414 17.5781 125.141 17.0508C125.879 16.5117 126.799 16.1074 127.9 15.8379C129.002 15.5566 130.279 15.416 131.732 15.416H134.668ZM148.062 12.1289V27H143V7.98047H147.764L148.062 12.1289ZM153.793 7.85742L153.705 12.5508C153.459 12.5156 153.16 12.4863 152.809 12.4629C152.469 12.4277 152.158 12.4102 151.877 12.4102C151.162 12.4102 150.541 12.5039 150.014 12.6914C149.498 12.8672 149.064 13.1309 148.713 13.4824C148.373 13.834 148.115 14.2617 147.939 14.7656C147.775 15.2695 147.682 15.8438 147.658 16.4883L146.639 16.1719C146.639 14.9414 146.762 13.8105 147.008 12.7793C147.254 11.7363 147.611 10.8281 148.08 10.0547C148.561 9.28125 149.146 8.68359 149.838 8.26172C150.529 7.83984 151.32 7.62891 152.211 7.62891C152.492 7.62891 152.779 7.65234 153.072 7.69922C153.365 7.73438 153.605 7.78711 153.793 7.85742ZM166.379 7.98047V11.5664H155.305V7.98047H166.379ZM158.047 3.28711H163.109V21.2695C163.109 21.8203 163.18 22.2422 163.32 22.5352C163.473 22.8281 163.695 23.0332 163.988 23.1504C164.281 23.2559 164.65 23.3086 165.096 23.3086C165.412 23.3086 165.693 23.2969 165.939 23.2734C166.197 23.2383 166.414 23.2031 166.59 23.168L166.607 26.8945C166.174 27.0352 165.705 27.1465 165.201 27.2285C164.697 27.3105 164.141 27.3516 163.531 27.3516C162.418 27.3516 161.445 27.1699 160.613 26.8066C159.793 26.4316 159.16 25.834 158.715 25.0137C158.27 24.1934 158.047 23.1152 158.047 21.7793V3.28711ZM174.201 0V27H169.139V0H174.201ZM173.48 16.8223H172.092C172.104 15.498 172.279 14.2793 172.619 13.166C172.959 12.041 173.445 11.0684 174.078 10.248C174.711 9.41602 175.467 8.77148 176.346 8.31445C177.236 7.85742 178.221 7.62891 179.299 7.62891C180.236 7.62891 181.086 7.76367 181.848 8.0332C182.621 8.29102 183.283 8.71289 183.834 9.29883C184.396 9.87305 184.83 10.6289 185.135 11.5664C185.439 12.5039 185.592 13.6406 185.592 14.9766V27H180.494V14.9414C180.494 14.0977 180.371 13.4355 180.125 12.9551C179.891 12.4629 179.545 12.1172 179.088 11.918C178.643 11.707 178.092 11.6016 177.436 11.6016C176.709 11.6016 176.088 11.7363 175.572 12.0059C175.068 12.2754 174.664 12.6504 174.359 13.1309C174.055 13.5996 173.832 14.1504 173.691 14.7832C173.551 15.416 173.48 16.0957 173.48 16.8223ZM189.688 24.5566C189.688 23.8066 189.945 23.1797 190.461 22.6758C190.988 22.1719 191.686 21.9199 192.553 21.9199C193.42 21.9199 194.111 22.1719 194.627 22.6758C195.154 23.1797 195.418 23.8066 195.418 24.5566C195.418 25.3066 195.154 25.9336 194.627 26.4375C194.111 26.9414 193.42 27.1934 192.553 27.1934C191.686 27.1934 190.988 26.9414 190.461 26.4375C189.945 25.9336 189.688 25.3066 189.688 24.5566Z" fill="#695D2E"/>
</svg>
